<?xml version="1.0" encoding="UTF-8"?>
<!-- Created with Grafika (https://www.grafika.cc/) -->
<svg version="1.0" xmlns="http://www.w3.org/2000/svg" xmlns:svg="http://www.w3.org/2000/svg" width="7448" height="3252" viewBox="3586.633057 1781.419678 1861.283936 812.218994" preserveAspectRatio="xMinYMin meet">
	<path d="M-2979.015625,1128.60400390625 L-2979.015625,4101.96875 L-1882.41015625,4101.96875 L-1882.41015625,1128.60400390625 L-2430.712890625,2615.2841796875 L-2979.015625,1128.60400390625 ZM-2443.51806640625,5198.58203125 L-2443.51806640625,4101.97705078125 L-3572.845947265625,4101.9765625 L-2443.51806640625,5198.58203125 ZM-2443.517822265625,5198.58203125 L-2443.517822265625,4101.9765625 L-1314.189697265625,4101.9765625 L-2443.517822265625,5198.58203125 Z" fill-rule="evenodd" transform="matrix(0.000000, -0.095810, 0.095810, 0.000000, 3632.368896, 1655.507568)" style="fill:#000000;" />
	<path d="M-2979.015625,1128.60400390625 L-2979.015625,4101.96875 L-1882.41015625,4101.96875 L-1882.41015625,1128.60400390625 L-2430.712890625,2615.2841796875 L-2979.015625,1128.60400390625 ZM-2443.51806640625,5198.58203125 L-2443.51806640625,4101.97705078125 L-3572.845947265625,4101.9765625 L-2443.51806640625,5198.58203125 ZM-2443.517822265625,5198.58203125 L-2443.517822265625,4101.9765625 L-1314.189697265625,4101.9765625 L-2443.517822265625,5198.58203125 Z" fill-rule="evenodd" transform="matrix(0.000000, -0.095810, -0.095810, -0.000000, 5370.053711, 1670.946411)" style="fill:#000000;" />
	<path d="M-2979.015625,1128.60400390625 L-2979.015625,4101.96875 L-1882.41015625,4101.96875 L-1882.41015625,1128.60400390625 L-2430.712890625,2615.2841796875 L-2979.015625,1128.60400390625 ZM-2443.51806640625,5198.58203125 L-2443.51806640625,4101.97705078125 L-3572.845947265625,4101.9765625 L-2443.51806640625,5198.58203125 ZM-2443.517822265625,5198.58203125 L-2443.517822265625,4101.9765625 L-1314.189697265625,4101.9765625 L-2443.517822265625,5198.58203125 Z" fill-rule="evenodd" transform="matrix(-0.106444, 0.000000, 0.000000, 0.107900, 3872.797607, 1974.624634)" style="fill:#000000;" />
	<path d="M-2979.015625,1128.60400390625 L-2979.015625,4101.96875 L-1882.41015625,4101.96875 L-1882.41015625,1128.60400390625 L-2430.712890625,2615.2841796875 L-2979.015625,1128.60400390625 ZM-2443.51806640625,5198.58203125 L-2443.51806640625,4101.97705078125 L-3572.845947265625,4101.9765625 L-2443.51806640625,5198.58203125 ZM-2443.517822265625,5198.58203125 L-2443.517822265625,4101.9765625 L-1314.189697265625,4101.9765625 L-2443.517822265625,5198.58203125 Z" fill-rule="evenodd" transform="matrix(0.112247, -0.000000, -0.000000, -0.109719, 4654.365723, 2655.279541)" style="fill:#000000;" />
	<path d="M11356.33203125,9740.4619140625 C17695.21875,10795.9228515625 21736.44921875,12386.1806640625 27225.921875,16265.267578125 L23306.224609375,10839.796875 L55180.9453125,9721.1708984375 L23569.69921875,8685.009765625 L27786.982421875,3836.336181640625 C21773.755859375,7318.87890625 17958.64453125,8641.140625 11356.33203125,9740.4619140625 Z" fill-rule="evenodd" transform="matrix(-0.000000, 0.012852, -0.020617, 0.000000, 4083.476318, 1884.438354)" style="fill:#000000;" />
	<path d="M11356.33203125,9740.4619140625 C17695.21875,10795.9228515625 21736.44921875,12386.1806640625 27225.921875,16265.267578125 L23306.224609375,10839.796875 L55180.9453125,9721.1708984375 L23569.69921875,8685.009765625 L27786.982421875,3836.336181640625 C21773.755859375,7318.87890625 17958.64453125,8641.140625 11356.33203125,9740.4619140625 Z" fill-rule="evenodd" transform="matrix(0.014079, 0.000000, 0.000000, 0.022584, 4671.047363, 2206.183105)" style="fill:#000000;" />
	<path d="M11356.33203125,9740.4619140625 C17958.64453125,8641.140625 21773.755859375,7318.87890625 27786.982421875,3836.336181640625 L23569.69921875,8685.009765625 L55180.9453125,9721.1708984375 L23306.224609375,10839.796875 L27225.921875,16265.267578125 C21736.44921875,12386.1806640625 17695.21875,10795.9228515625 11356.33203125,9740.4619140625 Z" fill-rule="evenodd" transform="matrix(0.000000, -0.012464, 0.019994, 0.000000, 3509.928955, 2705.567871)" style="fill:#000000;" />
	<path d="M11356.33203125,9740.4619140625 C17695.21875,10795.9228515625 21736.44921875,12386.1806640625 27225.921875,16265.267578125 L23306.224609375,10839.796875 L55180.9453125,9721.1708984375 L23569.69921875,8685.009765625 L27786.982421875,3836.336181640625 C21773.755859375,7318.87890625 17958.64453125,8641.140625 11356.33203125,9740.4619140625 Z" fill-rule="evenodd" transform="matrix(-0.012989, 0.000000, 0.000000, -0.020836, 5510.764160, 2379.042480)" style="fill:#000000;" />
	<path d="M4651.21875,-436.765625 L4651.21875,659.83984375 L4136.623046875,659.83984375 L5231.32958984375,1787.2127685546875 L5231.32958984375,1789.1641845703125 L5232.27734375,1788.189453125 L5233.2265625,1789.1658935546875 L5233.2265625,1787.2109375 L6327.93505859375,659.83984375 L5780.54296875,659.83984375 L5780.54296875,-436.7636413574219 L5215.88037109375,111.537109375 L4651.21875,-436.765625 Z" fill-rule="evenodd" transform="matrix(0.000000, 0.095810, -0.095810, 0.000000, 4715.196289, 1391.763428)" style="fill:#000000;" />
	<path d="M4651.21875,-436.765625 L4651.21875,659.83984375 L4136.623046875,659.83984375 L5231.32958984375,1787.2127685546875 L5231.32958984375,1789.1641845703125 L5232.27734375,1788.189453125 L5233.2265625,1789.1658935546875 L5233.2265625,1787.2109375 L6327.93505859375,659.83984375 L5780.54296875,659.83984375 L5780.54296875,-436.7636413574219 L5215.88037109375,111.537109375 L4651.21875,-436.765625 Z" fill-rule="evenodd" transform="matrix(0.000000, 0.095810, 0.095810, 0.000000, 4270.816406, 1391.707031)" style="fill:#000000;" />
	<path d="M4651.21875,-436.765625 L4651.21875,659.83984375 L4136.623046875,659.83984375 L5231.32958984375,1787.2127685546875 L5231.32958984375,1789.1641845703125 L5232.27734375,1788.189453125 L5233.2265625,1789.1658935546875 L5233.2265625,1787.2109375 L6327.93505859375,659.83984375 L5780.54296875,659.83984375 L5780.54296875,-436.7636413574219 L5215.88037109375,111.537109375 L4651.21875,-436.765625 Z" fill-rule="evenodd" transform="matrix(0.095810, 0.000000, 0.000000, -0.095810, 4140.359375, 2234.579102)" style="fill:#000000;" />
	<path d="M4651.21875,-436.765625 L4651.21875,659.83984375 L4136.623046875,659.83984375 L5231.32958984375,1787.2127685546875 L5231.32958984375,1789.1641845703125 L5232.27734375,1788.189453125 L5233.2265625,1789.1658935546875 L5233.2265625,1787.2109375 L6327.93505859375,659.83984375 L5780.54296875,659.83984375 L5780.54296875,-436.7636413574219 L5215.88037109375,111.537109375 L4651.21875,-436.765625 Z" fill-rule="evenodd" transform="matrix(0.098194, 0.000000, 0.000000, 0.098194, 4129.469238, 2391.248291)" style="fill:#000000;" />
</svg>