<?xml version="1.0" encoding="UTF-8"?>
<!-- Created with Grafika (https://www.grafika.cc/) -->
<svg version="1.0" xmlns="http://www.w3.org/2000/svg" xmlns:svg="http://www.w3.org/2000/svg" width="4453" height="3227" viewBox="-12231.947266 1144.533447 4452.454102 3226.954834" preserveAspectRatio="xMinYMin meet">
	<path d="M-18822.595703125,21671.9375 L-19084.013671875,22078.04296875 L-18958.10546875,22078.04296875 L-18958.10546875,22624.14453125 L-18687.0859375,22624.14453125 L-18687.0859375,22078.04296875 L-18561.1796875,22078.04296875 L-18822.595703125,21671.9375 Z" fill-rule="evenodd" transform="matrix(0.980471, 0.000000, 0.000000, 1.008956, 8994.583008, -19656.720703)" style="fill:#000000;" />
	<path d="M-18822.595703125,21671.9375 L-19084.013671875,22078.04296875 L-18958.10546875,22078.04296875 L-18958.10546875,22624.14453125 L-18687.0859375,22624.14453125 L-18687.0859375,22078.04296875 L-18561.1796875,22078.04296875 L-18822.595703125,21671.9375 Z" fill-rule="evenodd" transform="matrix(-1.012735, -0.000000, 0.000000, -1.012735, -28528.093750, 26319.410156)" style="fill:#000000;" />
	<path d="M-5323.603515625,1080.322265625 L-5588.3515625,1491.599609375 L-5460.83984375,1491.599609375 L-5460.83984375,1647.71875 L-5594.443359375,1647.71875 L-5594.443359375,1521.810546875 L-6000.55859375,1783.232421875 L-5594.443359375,2044.654296875 L-5594.443359375,1918.744140625 L-5323.60546875,1918.744140625 L-5188.1865234375,1918.744140625 L-5186.369140625,1647.71875 L-5186.369140625,1491.599609375 L-5058.859375,1491.599609375 L-5323.603515625,1080.322265625 Z" fill-rule="evenodd" transform="matrix(1.000000, -0.000000, 0.000000, 1.000000, -2720.635010, 1098.445801)" style="fill:#000000;" />
	<path d="M-5323.603515625,1080.322265625 L-5588.3515625,1491.599609375 L-5460.83984375,1491.599609375 L-5460.83984375,1647.71875 L-5594.443359375,1647.71875 L-5594.443359375,1521.810546875 L-6000.55859375,1783.232421875 L-5594.443359375,2044.654296875 L-5594.443359375,1918.744140625 L-5323.60546875,1918.744140625 L-5188.1865234375,1918.744140625 L-5186.369140625,1647.71875 L-5186.369140625,1491.599609375 L-5058.859375,1491.599609375 L-5323.603515625,1080.322265625 Z" fill-rule="evenodd" transform="matrix(-1.000000, 0.000000, -0.000000, -1.000000, -14321.618164, 4253.971680)" style="fill:#000000;" />
	<path d="M-3505.478515625,167.1953125 L-3766.900390625,573.310546875 L-3640.990234375,573.310546875 L-3640.990234375,765.5546875 L-3793.275390625,765.5546875 L-3793.275390625,638.044921875 L-4204.552734375,902.7890625 L-3793.275390625,1167.537109375 L-3793.275390625,1040.025390625 L-3637.15625,1040.025390625 L-3637.15625,1173.62890625 L-3763.064453125,1173.62890625 L-3501.642578125,1579.744140625 L-3240.220703125,1173.62890625 L-3366.130859375,1173.62890625 L-3366.130859375,981.384765625 L-3213.845703125,981.384765625 L-3213.845703125,1108.89453125 L-2802.568359375,844.150390625 L-3213.845703125,579.40234375 L-3213.845703125,706.9140625 L-3369.96484375,706.9140625 L-3369.96484375,573.310546875 L-3244.056640625,573.310546875 L-3505.478515625,167.1953125 Z" fill-rule="evenodd" transform="matrix(0.870021, 0.000000, 0.000000, 0.870021, -8492.111328, 2230.219727)" style="fill:#000000;" />
	<path d="M-3505.478515625,167.1953125 L-3766.900390625,573.310546875 L-3640.990234375,573.310546875 L-3637.15625,1040.025390625 L-3637.15625,1173.62890625 L-3763.064453125,1173.62890625 L-3501.642578125,1579.744140625 L-3240.220703125,1173.62890625 L-3366.130859375,1173.62890625 L-3366.130859375,981.384765625 L-3213.845703125,981.384765625 L-3213.845703125,1108.89453125 L-2802.568359375,844.150390625 L-3213.845703125,579.40234375 L-3213.845703125,706.9140625 L-3369.96484375,706.9140625 L-3369.96484375,573.310546875 L-3244.056640625,573.310546875 L-3505.478515625,167.1953125 Z" fill-rule="evenodd" transform="matrix(0.000000, -0.960110, 0.960110, 0.000000, -11218.235352, -1544.397827)" style="fill:#000000;" />
	<path d="M-3505.478515625,167.1953125 L-3766.900390625,573.310546875 L-3640.990234375,573.310546875 L-3637.15625,1040.025390625 L-3637.15625,1173.62890625 L-3763.064453125,1173.62890625 L-3501.642578125,1579.744140625 L-3240.220703125,1173.62890625 L-3366.130859375,1173.62890625 L-3366.130859375,981.384765625 L-3213.845703125,981.384765625 L-3213.845703125,1108.89453125 L-2802.568359375,844.150390625 L-3213.845703125,579.40234375 L-3213.845703125,706.9140625 L-3369.96484375,706.9140625 L-3369.96484375,573.310546875 L-3244.056640625,573.310546875 L-3505.478515625,167.1953125 Z" fill-rule="evenodd" transform="matrix(-0.938677, -0.000000, 0.000000, -0.938677, -13516.709961, 3483.201172)" style="fill:#000000;" />
	<path d="M-3505.478515625,167.1953125 L-3766.900390625,573.310546875 L-3640.990234375,573.310546875 L-3637.15625,1040.025390625 L-3637.15625,1173.62890625 L-3763.064453125,1173.62890625 L-3501.642578125,1579.744140625 L-3240.220703125,1173.62890625 L-3366.130859375,1173.62890625 L-3366.130859375,981.384765625 L-3213.845703125,981.384765625 L-3213.845703125,1108.89453125 L-2802.568359375,844.150390625 L-3213.845703125,579.40234375 L-3213.845703125,706.9140625 L-3369.96484375,706.9140625 L-3369.96484375,573.310546875 L-3244.056640625,573.310546875 L-3505.478515625,167.1953125 Z" fill-rule="evenodd" transform="matrix(0.000000, 0.935760, -0.935760, 0.000000, -10753.685547, 4884.106445)" style="fill:#000000;" />
	<path d="M-3505.478515625,167.1953125 L-3766.900390625,573.310546875 L-3640.990234375,573.310546875 L-3637.15625,1040.025390625 L-3637.15625,1173.62890625 L-3763.064453125,1173.62890625 L-3501.642578125,1579.744140625 L-3240.220703125,1173.62890625 L-3366.130859375,1173.62890625 L-3366.130859375,981.384765625 L-3213.845703125,981.384765625 L-3213.845703125,1108.89453125 L-2802.568359375,844.150390625 L-3213.845703125,579.40234375 L-3213.845703125,706.9140625 L-3369.96484375,706.9140625 L-3369.96484375,573.310546875 L-3244.056640625,573.310546875 L-3505.478515625,167.1953125 Z" fill-rule="evenodd" transform="matrix(0.917863, -0.000000, 0.000000, 0.917863, -7331.205078, 2888.106934)" style="fill:#000000;" />
	<path d="M-5323.603515625,1080.322265625 L-5588.3515625,1491.599609375 L-5460.83984375,1491.599609375 L-5460.83984375,1647.71875 L-5594.443359375,1647.71875 L-5594.443359375,1521.810546875 L-6000.55859375,1783.232421875 L-5594.443359375,2044.654296875 L-5594.443359375,1918.744140625 L-5323.60546875,1918.744140625 L-5188.1865234375,1918.744140625 L-5186.369140625,1647.71875 L-5186.369140625,1491.599609375 L-5058.859375,1491.599609375 L-5323.603515625,1080.322265625 Z" fill-rule="evenodd" transform="matrix(-0.000000, -1.000000, 1.000000, -0.000000, -9936.560547, -3914.327881)" style="fill:#000000;" />
	<path d="M-5323.603515625,1080.322265625 L-5588.3515625,1491.599609375 L-5460.83984375,1491.599609375 L-5460.83984375,1647.71875 L-5594.443359375,1647.71875 L-5594.443359375,1521.810546875 L-6000.55859375,1783.232421875 L-5594.443359375,2044.654296875 L-5594.443359375,1918.744140625 L-5323.60546875,1918.744140625 L-5188.1865234375,1918.744140625 L-5186.369140625,1647.71875 L-5186.369140625,1491.599609375 L-5058.859375,1491.599609375 L-5323.603515625,1080.322265625 Z" fill-rule="evenodd" transform="matrix(-0.000000, 1.000000, -1.000000, -0.000000, -7450.245605, 7169.092773)" style="fill:#000000;" />
	<path d="M-18822.595703125,21671.9375 L-19084.013671875,22078.04296875 L-18958.10546875,22078.04296875 L-18958.10546875,22624.14453125 L-18687.0859375,22624.14453125 L-18687.0859375,22078.04296875 L-18561.1796875,22078.04296875 L-18822.595703125,21671.9375 Z" fill-rule="evenodd" transform="matrix(0.000000, -1.021268, 1.000020, 0.000000, -30713.406250, -15746.583984)" style="fill:#000000;" />
	<path d="M-18822.595703125,21671.9375 L-19084.013671875,22078.04296875 L-18958.10546875,22078.04296875 L-18958.10546875,22624.14453125 L-18687.0859375,22624.14453125 L-18687.0859375,22078.04296875 L-18561.1796875,22078.04296875 L-18822.595703125,21671.9375 Z" fill-rule="evenodd" transform="matrix(0.000000, 1.000020, -1.000020, 0.000000, 13661.767578, 22794.382813)" style="fill:#000000;" />
	<path d="M-20864.6015625,18709.580078125 L-21270.70703125,18970.99609375 L-20864.6015625,19232.4140625 L-20864.6015625,19106.5078125 L-20322.935546875,19106.5078125 L-20322.935546875,19232.4140625 L-19916.828125,18970.998046875 L-20322.935546875,18709.580078125 L-20322.935546875,18835.48828125 L-20864.6015625,18835.48828125 L-20864.6015625,18709.580078125 Z" fill-rule="evenodd" transform="matrix(-1.000020, -0.000000, 0.000000, -1.000020, -32138.173828, 22911.238281)" style="fill:#000000;" />
</svg>