<?xml version="1.0" encoding="UTF-8"?>
<!-- Created with Grafika (https://www.grafika.cc/) -->
<svg version="1.0" xmlns="http://www.w3.org/2000/svg" xmlns:svg="http://www.w3.org/2000/svg" width="5563" height="2865" viewBox="-640.216675 -5716.098145 5562.962769 2864.092285" preserveAspectRatio="xMinYMin meet">
	<path d="M20632.447265625,464.3984375 L19528.4453125,7094.798828125 L14038.9921875,3215.72265625 L17958.64453125,8641.140625 L11356.33203125,9740.4619140625 L17695.21875,10795.9228515625 L13477.8994140625,15644.6328125 L19491.119140625,12162.09375 L20632.439453125,19016.63671875 L21736.44921875,12386.1806640625 L27225.921875,16265.267578125 L23306.224609375,10839.796875 L29908.5703125,9740.4677734375 L23569.69921875,8685.009765625 L27786.982421875,3836.336181640625 L21773.755859375,7318.87890625 L20632.447265625,464.3984375 Z" fill-rule="evenodd" transform="matrix(0.067940, 0.000000, 0.000000, 0.067940, 2854.471191, -5727.585449)" style="fill:#000000;" />
	<path d="M-54623.9765625,12757.5703125 L-55130.890625,15802.0 L-56766.58984375,13184.7421875 L-56064.37109375,16202.994140625 L-58595.125,14414.6552734375 L-56787.73046875,16916.376953125 L-59798.6171875,16238.072265625 L-57192.09375,17841.77734375 L-60210.85546875,18344.419921875 L-57166.51171875,18851.3203125 L-59783.73828125,20487.00390625 L-57175.984375,19880.287109375 L-58933.0625,21900.423828125 L-56262.390625,20353.712890625 L-57239.91796875,23281.083984375 L-55181.078125,20585.521484375 L-54623.9765625,23931.3359375 L-54117.08203125,20887.01171875 L-52481.4453125,23504.17578125 L-53183.6953125,20485.80078125 L-50652.8125,22274.224609375 L-52460.1875,19772.53515625 L-49449.40234375,20450.81640625 L-52055.97265625,18847.0859375 L-49037.08984375,18344.423828125 L-52081.49609375,17837.51171875 L-49464.30859375,16201.849609375 L-52071.93359375,16808.5390625 L-50314.890625,14788.443359375 L-52985.671875,16335.21875 L-52008.13671875,13407.798828125 L-54066.8984375,16103.26171875 L-54623.9765625,12757.5703125 Z" fill-rule="evenodd" transform="matrix(0.113262, 0.000000, 0.000000, 0.113262, 9024.045898, -7146.112793)" style="fill:#000000;" />
	<path d="M19528.4453125,7094.798828125 Q14038.9921875,3215.72265625 17958.64453125,8641.140625 Q11356.33203125,9740.4619140625 17695.21875,10795.9228515625 Q13477.8994140625,15644.6328125 19491.119140625,12162.09375 Q20632.439453125,19016.63671875 21736.44921875,12386.1806640625 Q27225.921875,16265.267578125 23306.224609375,10839.796875 Q29908.5703125,9740.4677734375 23569.69921875,8685.009765625 Q27786.982421875,3836.336181640625 21773.755859375,7318.87890625 Q20632.447265625,464.3984375 19528.4453125,7094.798828125 Z" fill-rule="evenodd" transform="matrix(0.098590, 0.000000, 0.000000, 0.098590, -2032.837891, -6028.698730)" style="fill:#000000;" />
	<path d="M19528.4453125,7094.798828125 C14038.9921875,3215.72265625 11356.33203125,9740.4619140625 17695.21875,10795.9228515625 C13477.8994140625,15644.6328125 20632.439453125,19016.63671875 21736.44921875,12386.1806640625 C27225.921875,16265.267578125 29908.5703125,9740.4677734375 23569.69921875,8685.009765625 C27786.982421875,3836.336181640625 20632.447265625,464.3984375 19528.4453125,7094.798828125 Z" fill-rule="evenodd" transform="matrix(0.098590, 0.000000, 0.000000, 0.098590, 2236.636230, -4554.091797)" style="fill:#000000;" />
	<path d="M20632.447265625,464.3984375 Q19528.4453125,7094.798828125 14038.9921875,3215.72265625 Q17958.64453125,8641.140625 11356.33203125,9740.4619140625 Q17695.21875,10795.9228515625 13477.8994140625,15644.6328125 Q19491.119140625,12162.09375 20632.439453125,19016.63671875 Q21736.44921875,12386.1806640625 27225.921875,16265.267578125 Q23306.224609375,10839.796875 29908.5703125,9740.4677734375 Q23569.69921875,8685.009765625 27786.982421875,3836.336181640625 Q21773.755859375,7318.87890625 20632.447265625,464.3984375 Z" fill-rule="evenodd" transform="matrix(0.069826, 0.000000, 0.000000, 0.069826, -39.954102, -5748.525391)" style="fill:#000000;" />
	<path d="M-50.818359375,-4163.6484375 C-135.71440373739313,-4165.633456639263 -134.65069694038183,-4065.6805125964647 -126.0078125,-3956.740234375 C-144.40830396495969,-3991.5690953059284 -168.1448354675343,-4011.569037942338 -203.205078125,-4000.095703125 C-267.601750966661,-3979.0222561849305 -235.05786533607156,-3898.769564119282 -197.328125,-3815.3515625 C-292.4129448771105,-3921.874394472897 -391.00869828371793,-4068.336632743069 -469.732421875,-3988.734375 C-526.6451036286637,-3931.1864353657425 -463.24598013580504,-3864.3178972100914 -383.97265625,-3796.220703125 C-414.73479731107614,-3803.6226781426813 -439.5539214531431,-3797.8946928767746 -453.1796875,-3767.43359375 C-480.08307657447085,-3707.2895482102927 -407.72663654947576,-3673.5802084708507 -327.775390625,-3641.89453125 C-468.2927968998805,-3650.21456178261 -637.0654250025116,-3682.590871084119 -640.173828125,-3573.927734375 C-642.718373364401,-3484.9763496679316 -531.5054087171566,-3491.976079481832 -416.458984375,-3502.208984375 C-455.1031036283387,-3484.181938277579 -478.27808667316356,-3459.9178648699685 -465.76953125,-3421.265625 C-455.6694559936699,-3390.0556400312 -433.1454892275773,-3381.0039320834826 -403.916015625,-3383.90625 C-491.08711918706905,-3322.3756908056503 -565.5963852392377,-3261.0298299968626 -510.794921875,-3201.560546875 C-449.163938998756,-3134.6799899689277 -366.3039308176019,-3207.8925054880237 -282.0703125,-3290.169921875 C-307.8718439498507,-3243.71130698468 -317.9318609974517,-3203.0978965314835 -277.9921875,-3181.0546875 C-209.9088136604817,-3143.478696933229 -168.4580710454917,-3240.334808530592 -125.94921875,-3331.84765625 C-132.20310390922631,-3182.2524318393266 -174.73619447167158,-2989.96178781449 -56.234375,-2987.19140625 C25.86679084967156,-2985.271873383694 27.131180654403355,-3079.2133502133115 19.48828125,-3183.71875 C38.073353363914684,-3147.238267984093 62.12532137060693,-3125.9506634213817 98.068359375,-3137.712890625 C167.92923964727163,-3160.574610553951 124.20647824923404,-3252.7734568724227 82.89453125,-3343.501953125 C180.2409081424778,-3236.5650827317913 281.91266570418964,-3080.434957930568 362.6796875,-3162.103515625 C415.18168610844555,-3215.191507685035 365.6287724080335,-3276.185211389735 295.51171875,-3338.771484375 C318.538678799743,-3337.1162857168842 336.96925647637465,-3345.6211253743454 348.04296875,-3370.376953125 C379.00804680267555,-3439.601085891628 279.42777897225903,-3474.0576286811574 186.828125,-3510.373046875 C332.35304152853985,-3506.9310970602905 529.7555646758175,-3459.3231111407404 533.119140625,-3576.91015625 C535.4574554300301,-3658.652497007496 441.32348652895166,-3659.0231176705665 336.939453125,-3650.748046875 C358.9996679689631,-3666.9699899033776 369.980826451795,-3687.656952022931 360.6328125,-3716.54296875 C347.384452141409,-3757.481404958809 312.4061967358543,-3759.671751564548 269.26953125,-3747.3125 C367.5739535089077,-3815.4107217974347 464.36902948097475,-3883.486595740643 403.7421875,-3949.27734375 C346.1230084229518,-4011.8045415107085 269.9052328361662,-3951.6068644208417 191.419921875,-3876.435546875 C205.03192403867013,-3910.562448289214 204.34015068563284,-3939.3760620432995 172.853515625,-3956.75390625 C103.33183092775668,-3995.123722933788 61.55655240258216,-3893.44327506694 18.09375,-3800.279296875 C21.04889287689315,-3951.9141834773604 72.6173145739278,-4160.762710673379 -50.818359375,-4163.6484375 Z" fill-rule="evenodd" style="fill:#000000;" />
	<path d="M-2347.171875,16509.77734375 L-2572.454833984375,18546.65625 L-4609.328125,18771.9375 L-2572.453125,18997.220703125 L-2347.171875,21034.0859375 L-2121.892578125,18997.220703125 L-85.021484375,18771.9375 L-2121.890625,18546.65625 L-2347.171875,16509.77734375 Z" fill-rule="evenodd" transform="matrix(0.314585, 0.000000, 0.000000, 0.314585, 2110.857422, -9469.019531)" style="fill:#000000;" />
	<path d="M-2347.171875,16509.77734375 L-2572.454833984375,18546.65625 L-4609.328125,18771.9375 L-2572.453125,18997.220703125 L-2347.171875,21034.0859375 L-2121.892578125,18997.220703125 L-85.021484375,18771.9375 L-2121.890625,18546.65625 L-2347.171875,16509.77734375 Z" fill-rule="evenodd" transform="matrix(0.314585, 0.000000, 0.000000, 0.314585, 2110.857422, -9469.019531)" style="fill:#000000;" />
	<path d="M2907.87109375,-4297.283203125 L2845.748046875,-3735.615234375 L2404.662109375,-4088.84765625 L2757.89453125,-3647.76171875 L2196.23046875,-3585.640625 L2757.89453125,-3523.51953125 L2404.6640625,-3082.4375 L2845.748046875,-3435.669921875 L2907.87109375,-2874.00390625 L2969.990234375,-3435.666015625 L3411.07421875,-3082.4375 L3057.841796875,-3523.51953125 L3619.509765625,-3585.640625 L3057.84375,-3647.763671875 L3411.076171875,-4088.84765625 L2969.9921875,-3735.615234375 L2907.87109375,-4297.283203125 Z" fill-rule="evenodd" style="fill:#000000;" />
</svg>