<?xml version="1.0" encoding="UTF-8"?>
<!-- Created with Grafika (https://www.grafika.cc/) -->
<svg version="1.0" xmlns="http://www.w3.org/2000/svg" xmlns:svg="http://www.w3.org/2000/svg" width="4922" height="2281" viewBox="-10547.010742 912.710938 4921.659180 2280.167969" preserveAspectRatio="xMinYMin meet">
	<g>
		<path d="M-18822.595703125,21671.9375 L-19084.013671875,22078.04296875 L-18958.10546875,22078.04296875 L-18958.10546875,22624.14453125 L-18687.0859375,22624.14453125 L-18687.0859375,22078.04296875 L-18561.1796875,22078.04296875 L-18822.595703125,21671.9375 Z" fill-rule="evenodd" transform="matrix(0.980471, 0.000000, 0.000000, 1.008956, 12054.181641, -20771.089844)" style="fill:#000000;" />
		<path d="M-18822.595703125,21671.9375 L-19084.013671875,22078.04296875 L-18958.10546875,22078.04296875 L-18958.10546875,22624.14453125 L-18687.0859375,22624.14453125 L-18687.0859375,22078.04296875 L-18561.1796875,22078.04296875 L-18822.595703125,21671.9375 Z" fill-rule="evenodd" transform="matrix(-1.012735, -0.000000, 0.000000, -1.012735, -24952.392578, 24100.144531)" style="fill:#000000;" />
		<path d="M-5323.603515625,1080.322265625 L-5588.3515625,1491.599609375 L-5460.83984375,1491.599609375 L-5460.83984375,1647.7186279296875 L-5594.443359375,1647.7186279296875 L-5594.443359375,1521.810546875 L-6000.55859375,1783.232421875 L-5594.443359375,2044.6541748046875 L-5594.443359375,1918.7440185546875 L-5323.60546875,1918.7440185546875 L-5188.1865234375,1918.7440185546875 L-5186.369140625,1647.7186279296875 L-5186.369140625,1491.599609375 L-5058.859375,1491.599609375 L-5323.603515625,1080.322265625 Z" fill-rule="evenodd" transform="matrix(1.000000, -0.000000, 0.000000, 1.000000, -1949.565918, 45.943554)" style="fill:#000000;" />
		<path d="M-5323.603515625,1080.322265625 L-5588.3515625,1491.599609375 L-5460.83984375,1491.599609375 L-5460.83984375,1647.7186279296875 L-5594.443359375,1647.7186279296875 L-5594.443359375,1521.810546875 L-6000.55859375,1783.232421875 L-5594.443359375,2044.6541748046875 L-5594.443359375,1918.7440185546875 L-5323.60546875,1918.7440185546875 L-5188.1865234375,1918.7440185546875 L-5186.369140625,1647.7186279296875 L-5186.369140625,1491.599609375 L-5058.859375,1491.599609375 L-5323.603515625,1080.322265625 Z" fill-rule="evenodd" transform="matrix(-1.000000, 0.000000, -0.000000, -1.000000, -14127.094727, 4182.953613)" style="fill:#000000;" />
		<path d="M-3505.478271484375,167.1953125 L-3766.900390625,573.310546875 L-3640.989990234375,573.310546875 L-3640.989990234375,765.5546875 L-3793.275146484375,765.5546875 L-3793.275146484375,638.044921875 L-4204.552734375,902.7890014648438 L-3793.275146484375,1167.5369873046875 L-3793.275146484375,1040.025390625 L-3637.156005859375,1040.025390625 L-3637.156005859375,1173.62890625 L-3763.064453125,1173.62890625 L-3501.642333984375,1579.7440185546875 L-3240.220703125,1173.62890625 L-3366.130615234375,1173.62890625 L-3366.130615234375,981.3847045898438 L-3213.845458984375,981.3847045898438 L-3213.845458984375,1108.89453125 L-2802.568359375,844.150390625 L-3213.845458984375,579.40234375 L-3213.845458984375,706.9140625 L-3369.965087890625,706.9140625 L-3369.965087890625,573.310546875 L-3244.056640625,573.310546875 L-3505.478271484375,167.1953125 Z" fill-rule="evenodd" transform="matrix(0.849640, 0.000000, 0.000000, 0.849640, -6929.505859, 1850.665771)" style="fill:#000000;" />
		<path d="M-3505.478271484375,167.1953125 L-3766.900390625,573.310546875 L-3640.989990234375,573.310546875 L-3637.156005859375,1040.025390625 L-3637.156005859375,1173.62890625 L-3763.064453125,1173.62890625 L-3501.642333984375,1579.7440185546875 L-3240.220703125,1173.62890625 L-3366.130615234375,1173.62890625 L-3366.130615234375,981.3847045898438 L-3213.845458984375,981.3847045898438 L-3213.845458984375,1108.89453125 L-2802.568359375,844.150390625 L-3213.845458984375,579.40234375 L-3213.845458984375,706.9140625 L-3369.965087890625,706.9140625 L-3369.965087890625,573.310546875 L-3244.056640625,573.310546875 L-3505.478271484375,167.1953125 Z" fill-rule="evenodd" transform="matrix(0.000000, -0.960110, 0.960110, 0.000000, -10707.537109, -1623.918213)" style="fill:#000000;" />
		<path d="M-5323.603515625,1080.322265625 L-5588.3515625,1491.599609375 L-5460.83984375,1491.599609375 L-5460.83984375,1647.7186279296875 L-5594.443359375,1647.7186279296875 L-5594.443359375,1521.810546875 L-6000.55859375,1783.232421875 L-5594.443359375,2044.6541748046875 L-5594.443359375,1918.7440185546875 L-5323.60546875,1918.7440185546875 L-5188.1865234375,1918.7440185546875 L-5186.369140625,1647.7186279296875 L-5186.369140625,1491.599609375 L-5058.859375,1491.599609375 L-5323.603515625,1080.322265625 Z" fill-rule="evenodd" transform="matrix(-0.000000, -1.000000, 1.000000, -0.000000, -9058.856445, -2922.304443)" style="fill:#000000;" />
		<path d="M-5323.603515625,1080.322265625 L-5588.3515625,1491.599609375 L-5460.83984375,1491.599609375 L-5460.83984375,1647.7186279296875 L-5594.443359375,1647.7186279296875 L-5594.443359375,1521.810546875 L-6000.55859375,1783.232421875 L-5594.443359375,2044.6541748046875 L-5594.443359375,1918.7440185546875 L-5323.60546875,1918.7440185546875 L-5188.1865234375,1918.7440185546875 L-5186.369140625,1647.7186279296875 L-5186.369140625,1491.599609375 L-5058.859375,1491.599609375 L-5323.603515625,1080.322265625 Z" fill-rule="evenodd" transform="matrix(-0.000000, 1.000000, -1.000000, -0.000000, -7046.172363, 7147.968750)" style="fill:#000000;" />
		<path d="M-18822.595703125,21671.9375 L-19084.013671875,22078.04296875 L-18958.10546875,22078.04296875 L-18958.10546875,22624.14453125 L-18687.0859375,22624.14453125 L-18687.0859375,22078.04296875 L-18561.1796875,22078.04296875 L-18822.595703125,21671.9375 Z" fill-rule="evenodd" transform="matrix(0.000000, -1.021268, 1.000020, 0.000000, -28407.355469, -16831.998047)" style="fill:#000000;" />
		<path d="M-18822.595703125,21671.9375 L-19084.013671875,22078.04296875 L-18958.10546875,22078.04296875 L-18958.10546875,22624.14453125 L-18687.0859375,22624.14453125 L-18687.0859375,22078.04296875 L-18561.1796875,22078.04296875 L-18822.595703125,21671.9375 Z" fill-rule="evenodd" transform="matrix(0.000000, 1.000020, -1.000020, 0.000000, 15971.060547, 21659.861328)" style="fill:#000000;" />
		<path d="M-20864.6015625,18709.580078125 L-21270.70703125,18970.99609375 L-20864.6015625,19232.4140625 L-20864.6015625,19106.5078125 L-20322.935546875,19106.5078125 L-20322.935546875,19232.4140625 L-19916.828125,18970.998046875 L-20322.935546875,18709.580078125 L-20322.935546875,18835.48828125 L-20864.6015625,18835.48828125 L-20864.6015625,18709.580078125 Z" fill-rule="evenodd" transform="matrix(-1.000020, -0.000000, 0.000000, -1.000020, -28646.353516, 20145.505859)" style="fill:#000000;" />
	</g>
</svg>