<?xml version="1.0" encoding="UTF-8"?>
<!-- Created with Grafika (https://www.grafika.cc/) -->
<svg version="1.0" xmlns="http://www.w3.org/2000/svg" xmlns:svg="http://www.w3.org/2000/svg" width="8192" height="1799" viewBox="-48747.125000 -37811.933594 64435.107422 14147.224609" preserveAspectRatio="xMinYMin meet">
	<path d="M-50.0,-50.0 L50.0,50.0 L-50.0,50.0 L-50.0,-50.0 Z" fill-rule="evenodd" transform="matrix(43.007206, 0.000000, 0.000000, 43.007206, -18002.976563, -35254.757813)" style="fill:#000000;" />
	<path d="M-50.0,-50.0 L50.0,50.0 L-50.0,50.0 L-50.0,-50.0 Z" fill-rule="evenodd" transform="matrix(-43.007210, 0.000000, -0.000000, -43.007210, -27302.150391, -26706.013672)" style="fill:#000000;" />
	<path d="M-50.0,-50.0 L50.0,50.0 L-50.0,50.0 L-50.0,-50.0 Z" fill-rule="evenodd" transform="matrix(-43.007198, 0.000000, 0.000000, 43.007198, -27082.787109, -35338.984375)" style="fill:#000000;" />
	<path d="M-50.0,-50.0 L50.0,50.0 L-50.0,50.0 L-50.0,-50.0 Z" fill-rule="evenodd" transform="matrix(43.007195, 0.000000, 0.000000, -43.007195, -18222.339844, -26621.783203)" style="fill:#000000;" />
	<path d="M50.0,-50.0 L-50.0,50.0 L-50.0,-25.0 L50.0,-50.0 Z" fill-rule="evenodd" transform="matrix(0.000000, -46.561363, 46.561363, 0.000000, -36342.785156, -35468.808594)" style="fill:#000000;" />
	<path d="M50.0,-50.0 L-50.0,50.0 L-50.0,-25.0 L50.0,-50.0 Z" fill-rule="evenodd" transform="matrix(-0.000001, 46.561356, -46.561356, -0.000001, -46272.960938, -25992.777344)" style="fill:#000000;" />
	<path d="M50.0,-50.0 L-50.0,50.0 L-50.0,-25.0 L50.0,-50.0 Z" fill-rule="evenodd" transform="matrix(0.000001, -46.561371, -46.561371, -0.000001, -46419.054688, -35483.863281)" style="fill:#000000;" />
	<path d="M50.0,-50.0 L-50.0,50.0 L-50.0,-25.0 L50.0,-50.0 Z" fill-rule="evenodd" transform="matrix(-0.000000, 46.561378, 46.561378, 0.000000, -36298.359375, -26130.230469)" style="fill:#000000;" />
	<path d="M25.0,50.0 L0.0,50.0 L-25.0,50.0 L-50.0,25.0 L25.0,50.0 Z" fill-rule="evenodd" transform="matrix(166.669296, 0.000000, 0.000000, 166.669296, 11025.819336, -41754.988281)" style="fill:#000000;" />
	<path d="M25.0,50.0 L0.0,50.0 L-25.0,50.0 L-50.0,25.0 L25.0,50.0 Z" fill-rule="evenodd" transform="matrix(-166.669312, 0.000000, -0.000000, -166.669312, -8301.136719, -20331.121094)" style="fill:#000000;" />
	<path d="M25.0,50.0 L0.0,50.0 L-25.0,50.0 L-50.0,25.0 L25.0,50.0 Z" fill-rule="evenodd" transform="matrix(-166.669296, -0.000000, -0.000000, 166.669296, -8796.566406, -41853.292969)" style="fill:#000000;" />
	<path d="M25.0,50.0 L0.0,50.0 L-25.0,50.0 L-50.0,25.0 L25.0,50.0 Z" fill-rule="evenodd" transform="matrix(166.669281, 0.000000, 0.000000, -166.669281, 11521.250000, -20232.810547)" style="fill:#000000;" />
</svg>